<svg version="1.1" xmlns="http://www.w3.org/2000/svg" width="82px" height="82px" viewBox="0 0 82 82" preserveAspectRatio="xMinYMin meet"><rect width="100%" height="100%" fill="white" cx="0" cy="0"></rect><path d="M8,8h2v2h-2zM10,8h2v2h-2zM12,8h2v2h-2zM14,8h2v2h-2zM16,8h2v2h-2zM18,8h2v2h-2zM20,8h2v2h-2zM24,8h2v2h-2zM26,8h2v2h-2zM28,8h2v2h-2zM30,8h2v2h-2zM34,8h2v2h-2zM40,8h2v2h-2zM42,8h2v2h-2zM46,8h2v2h-2zM48,8h2v2h-2zM54,8h2v2h-2zM60,8h2v2h-2zM62,8h2v2h-2zM64,8h2v2h-2zM66,8h2v2h-2zM68,8h2v2h-2zM70,8h2v2h-2zM72,8h2v2h-2zM8,10h2v2h-2zM20,10h2v2h-2zM24,10h2v2h-2zM26,10h2v2h-2zM28,10h2v2h-2zM34,10h2v2h-2zM40,10h2v2h-2zM44,10h2v2h-2zM48,10h2v2h-2zM50,10h2v2h-2zM52,10h2v2h-2zM54,10h2v2h-2zM56,10h2v2h-2zM60,10h2v2h-2zM72,10h2v2h-2zM8,12h2v2h-2zM12,12h2v2h-2zM14,12h2v2h-2zM16,12h2v2h-2zM20,12h2v2h-2zM26,12h2v2h-2zM28,12h2v2h-2zM30,12h2v2h-2zM40,12h2v2h-2zM42,12h2v2h-2zM46,12h2v2h-2zM50,12h2v2h-2zM52,12h2v2h-2zM56,12h2v2h-2zM60,12h2v2h-2zM64,12h2v2h-2zM66,12h2v2h-2zM68,12h2v2h-2zM72,12h2v2h-2zM8,14h2v2h-2zM12,14h2v2h-2zM14,14h2v2h-2zM16,14h2v2h-2zM20,14h2v2h-2zM24,14h2v2h-2zM30,14h2v2h-2zM32,14h2v2h-2zM36,14h2v2h-2zM40,14h2v2h-2zM46,14h2v2h-2zM48,14h2v2h-2zM50,14h2v2h-2zM52,14h2v2h-2zM56,14h2v2h-2zM60,14h2v2h-2zM64,14h2v2h-2zM66,14h2v2h-2zM68,14h2v2h-2zM72,14h2v2h-2zM8,16h2v2h-2zM12,16h2v2h-2zM14,16h2v2h-2zM16,16h2v2h-2zM20,16h2v2h-2zM28,16h2v2h-2zM30,16h2v2h-2zM32,16h2v2h-2zM34,16h2v2h-2zM36,16h2v2h-2zM42,16h2v2h-2zM48,16h2v2h-2zM54,16h2v2h-2zM60,16h2v2h-2zM64,16h2v2h-2zM66,16h2v2h-2zM68,16h2v2h-2zM72,16h2v2h-2zM8,18h2v2h-2zM20,18h2v2h-2zM28,18h2v2h-2zM34,18h2v2h-2zM42,18h2v2h-2zM44,18h2v2h-2zM46,18h2v2h-2zM48,18h2v2h-2zM50,18h2v2h-2zM52,18h2v2h-2zM56,18h2v2h-2zM60,18h2v2h-2zM72,18h2v2h-2zM8,20h2v2h-2zM10,20h2v2h-2zM12,20h2v2h-2zM14,20h2v2h-2zM16,20h2v2h-2zM18,20h2v2h-2zM20,20h2v2h-2zM24,20h2v2h-2zM28,20h2v2h-2zM32,20h2v2h-2zM36,20h2v2h-2zM40,20h2v2h-2zM44,20h2v2h-2zM48,20h2v2h-2zM52,20h2v2h-2zM56,20h2v2h-2zM60,20h2v2h-2zM62,20h2v2h-2zM64,20h2v2h-2zM66,20h2v2h-2zM68,20h2v2h-2zM70,20h2v2h-2zM72,20h2v2h-2zM24,22h2v2h-2zM30,22h2v2h-2zM36,22h2v2h-2zM42,22h2v2h-2zM44,22h2v2h-2zM48,22h2v2h-2zM56,22h2v2h-2zM8,24h2v2h-2zM12,24h2v2h-2zM14,24h2v2h-2zM18,24h2v2h-2zM20,24h2v2h-2zM22,24h2v2h-2zM26,24h2v2h-2zM40,24h2v2h-2zM42,24h2v2h-2zM44,24h2v2h-2zM46,24h2v2h-2zM50,24h2v2h-2zM52,24h2v2h-2zM56,24h2v2h-2zM60,24h2v2h-2zM66,24h2v2h-2zM70,24h2v2h-2zM72,24h2v2h-2zM8,26h2v2h-2zM10,26h2v2h-2zM26,26h2v2h-2zM28,26h2v2h-2zM30,26h2v2h-2zM32,26h2v2h-2zM40,26h2v2h-2zM44,26h2v2h-2zM46,26h2v2h-2zM48,26h2v2h-2zM50,26h2v2h-2zM54,26h2v2h-2zM60,26h2v2h-2zM62,26h2v2h-2zM66,26h2v2h-2zM68,26h2v2h-2zM72,26h2v2h-2zM10,28h2v2h-2zM12,28h2v2h-2zM14,28h2v2h-2zM16,28h2v2h-2zM18,28h2v2h-2zM20,28h2v2h-2zM24,28h2v2h-2zM26,28h2v2h-2zM32,28h2v2h-2zM36,28h2v2h-2zM42,28h2v2h-2zM54,28h2v2h-2zM58,28h2v2h-2zM60,28h2v2h-2zM62,28h2v2h-2zM64,28h2v2h-2zM66,28h2v2h-2zM70,28h2v2h-2zM72,28h2v2h-2zM8,30h2v2h-2zM10,30h2v2h-2zM14,30h2v2h-2zM16,30h2v2h-2zM18,30h2v2h-2zM22,30h2v2h-2zM24,30h2v2h-2zM26,30h2v2h-2zM32,30h2v2h-2zM34,30h2v2h-2zM36,30h2v2h-2zM40,30h2v2h-2zM44,30h2v2h-2zM46,30h2v2h-2zM58,30h2v2h-2zM60,30h2v2h-2zM62,30h2v2h-2zM66,30h2v2h-2zM14,32h2v2h-2zM16,32h2v2h-2zM20,32h2v2h-2zM24,32h2v2h-2zM26,32h2v2h-2zM30,32h2v2h-2zM32,32h2v2h-2zM44,32h2v2h-2zM50,32h2v2h-2zM54,32h2v2h-2zM58,32h2v2h-2zM66,32h2v2h-2zM72,32h2v2h-2zM12,34h2v2h-2zM14,34h2v2h-2zM16,34h2v2h-2zM18,34h2v2h-2zM24,34h2v2h-2zM30,34h2v2h-2zM40,34h2v2h-2zM42,34h2v2h-2zM44,34h2v2h-2zM50,34h2v2h-2zM52,34h2v2h-2zM56,34h2v2h-2zM60,34h2v2h-2zM62,34h2v2h-2zM68,34h2v2h-2zM70,34h2v2h-2zM8,36h2v2h-2zM14,36h2v2h-2zM18,36h2v2h-2zM20,36h2v2h-2zM24,36h2v2h-2zM30,36h2v2h-2zM32,36h2v2h-2zM34,36h2v2h-2zM38,36h2v2h-2zM40,36h2v2h-2zM50,36h2v2h-2zM56,36h2v2h-2zM60,36h2v2h-2zM62,36h2v2h-2zM66,36h2v2h-2zM8,38h2v2h-2zM14,38h2v2h-2zM24,38h2v2h-2zM34,38h2v2h-2zM36,38h2v2h-2zM40,38h2v2h-2zM46,38h2v2h-2zM48,38h2v2h-2zM50,38h2v2h-2zM58,38h2v2h-2zM60,38h2v2h-2zM62,38h2v2h-2zM66,38h2v2h-2zM68,38h2v2h-2zM8,40h2v2h-2zM10,40h2v2h-2zM14,40h2v2h-2zM20,40h2v2h-2zM28,40h2v2h-2zM30,40h2v2h-2zM32,40h2v2h-2zM38,40h2v2h-2zM44,40h2v2h-2zM46,40h2v2h-2zM48,40h2v2h-2zM50,40h2v2h-2zM52,40h2v2h-2zM54,40h2v2h-2zM58,40h2v2h-2zM60,40h2v2h-2zM64,40h2v2h-2zM68,40h2v2h-2zM8,42h2v2h-2zM12,42h2v2h-2zM14,42h2v2h-2zM16,42h2v2h-2zM18,42h2v2h-2zM22,42h2v2h-2zM24,42h2v2h-2zM26,42h2v2h-2zM34,42h2v2h-2zM38,42h2v2h-2zM42,42h2v2h-2zM44,42h2v2h-2zM48,42h2v2h-2zM50,42h2v2h-2zM52,42h2v2h-2zM54,42h2v2h-2zM56,42h2v2h-2zM58,42h2v2h-2zM60,42h2v2h-2zM64,42h2v2h-2zM66,42h2v2h-2zM70,42h2v2h-2zM72,42h2v2h-2zM8,44h2v2h-2zM10,44h2v2h-2zM16,44h2v2h-2zM20,44h2v2h-2zM22,44h2v2h-2zM28,44h2v2h-2zM30,44h2v2h-2zM38,44h2v2h-2zM40,44h2v2h-2zM42,44h2v2h-2zM48,44h2v2h-2zM52,44h2v2h-2zM56,44h2v2h-2zM58,44h2v2h-2zM62,44h2v2h-2zM64,44h2v2h-2zM68,44h2v2h-2zM70,44h2v2h-2zM10,46h2v2h-2zM14,46h2v2h-2zM24,46h2v2h-2zM26,46h2v2h-2zM32,46h2v2h-2zM38,46h2v2h-2zM46,46h2v2h-2zM50,46h2v2h-2zM54,46h2v2h-2zM56,46h2v2h-2zM58,46h2v2h-2zM64,46h2v2h-2zM70,46h2v2h-2zM10,48h2v2h-2zM12,48h2v2h-2zM20,48h2v2h-2zM24,48h2v2h-2zM26,48h2v2h-2zM28,48h2v2h-2zM30,48h2v2h-2zM44,48h2v2h-2zM48,48h2v2h-2zM62,48h2v2h-2zM64,48h2v2h-2zM66,48h2v2h-2zM68,48h2v2h-2zM70,48h2v2h-2zM8,50h2v2h-2zM10,50h2v2h-2zM12,50h2v2h-2zM16,50h2v2h-2zM18,50h2v2h-2zM22,50h2v2h-2zM24,50h2v2h-2zM30,50h2v2h-2zM38,50h2v2h-2zM42,50h2v2h-2zM44,50h2v2h-2zM50,50h2v2h-2zM54,50h2v2h-2zM58,50h2v2h-2zM68,50h2v2h-2zM72,50h2v2h-2zM18,52h2v2h-2zM20,52h2v2h-2zM22,52h2v2h-2zM24,52h2v2h-2zM32,52h2v2h-2zM34,52h2v2h-2zM40,52h2v2h-2zM42,52h2v2h-2zM50,52h2v2h-2zM54,52h2v2h-2zM56,52h2v2h-2zM58,52h2v2h-2zM60,52h2v2h-2zM62,52h2v2h-2zM66,52h2v2h-2zM70,52h2v2h-2zM72,52h2v2h-2zM10,54h2v2h-2zM16,54h2v2h-2zM22,54h2v2h-2zM26,54h2v2h-2zM28,54h2v2h-2zM34,54h2v2h-2zM36,54h2v2h-2zM40,54h2v2h-2zM44,54h2v2h-2zM46,54h2v2h-2zM60,54h2v2h-2zM62,54h2v2h-2zM64,54h2v2h-2zM66,54h2v2h-2zM70,54h2v2h-2zM8,56h2v2h-2zM14,56h2v2h-2zM16,56h2v2h-2zM20,56h2v2h-2zM22,56h2v2h-2zM24,56h2v2h-2zM26,56h2v2h-2zM28,56h2v2h-2zM34,56h2v2h-2zM36,56h2v2h-2zM38,56h2v2h-2zM42,56h2v2h-2zM52,56h2v2h-2zM54,56h2v2h-2zM56,56h2v2h-2zM58,56h2v2h-2zM60,56h2v2h-2zM62,56h2v2h-2zM64,56h2v2h-2zM70,56h2v2h-2zM72,56h2v2h-2zM24,58h2v2h-2zM28,58h2v2h-2zM30,58h2v2h-2zM32,58h2v2h-2zM34,58h2v2h-2zM38,58h2v2h-2zM40,58h2v2h-2zM42,58h2v2h-2zM46,58h2v2h-2zM48,58h2v2h-2zM56,58h2v2h-2zM64,58h2v2h-2zM66,58h2v2h-2zM70,58h2v2h-2zM72,58h2v2h-2zM8,60h2v2h-2zM10,60h2v2h-2zM12,60h2v2h-2zM14,60h2v2h-2zM16,60h2v2h-2zM18,60h2v2h-2zM20,60h2v2h-2zM24,60h2v2h-2zM26,60h2v2h-2zM30,60h2v2h-2zM32,60h2v2h-2zM34,60h2v2h-2zM36,60h2v2h-2zM46,60h2v2h-2zM48,60h2v2h-2zM52,60h2v2h-2zM54,60h2v2h-2zM56,60h2v2h-2zM60,60h2v2h-2zM64,60h2v2h-2zM8,62h2v2h-2zM20,62h2v2h-2zM24,62h2v2h-2zM36,62h2v2h-2zM48,62h2v2h-2zM50,62h2v2h-2zM52,62h2v2h-2zM54,62h2v2h-2zM56,62h2v2h-2zM64,62h2v2h-2zM66,62h2v2h-2zM68,62h2v2h-2zM70,62h2v2h-2zM72,62h2v2h-2zM8,64h2v2h-2zM12,64h2v2h-2zM14,64h2v2h-2zM16,64h2v2h-2zM20,64h2v2h-2zM26,64h2v2h-2zM28,64h2v2h-2zM30,64h2v2h-2zM32,64h2v2h-2zM36,64h2v2h-2zM38,64h2v2h-2zM42,64h2v2h-2zM46,64h2v2h-2zM48,64h2v2h-2zM54,64h2v2h-2zM56,64h2v2h-2zM58,64h2v2h-2zM60,64h2v2h-2zM62,64h2v2h-2zM64,64h2v2h-2zM68,64h2v2h-2zM70,64h2v2h-2zM8,66h2v2h-2zM12,66h2v2h-2zM14,66h2v2h-2zM16,66h2v2h-2zM20,66h2v2h-2zM24,66h2v2h-2zM26,66h2v2h-2zM28,66h2v2h-2zM34,66h2v2h-2zM36,66h2v2h-2zM44,66h2v2h-2zM46,66h2v2h-2zM48,66h2v2h-2zM50,66h2v2h-2zM54,66h2v2h-2zM62,66h2v2h-2zM66,66h2v2h-2zM68,66h2v2h-2zM70,66h2v2h-2zM72,66h2v2h-2zM8,68h2v2h-2zM12,68h2v2h-2zM14,68h2v2h-2zM16,68h2v2h-2zM20,68h2v2h-2zM24,68h2v2h-2zM26,68h2v2h-2zM30,68h2v2h-2zM34,68h2v2h-2zM44,68h2v2h-2zM46,68h2v2h-2zM52,68h2v2h-2zM60,68h2v2h-2zM62,68h2v2h-2zM68,68h2v2h-2zM8,70h2v2h-2zM20,70h2v2h-2zM28,70h2v2h-2zM30,70h2v2h-2zM36,70h2v2h-2zM38,70h2v2h-2zM40,70h2v2h-2zM42,70h2v2h-2zM44,70h2v2h-2zM46,70h2v2h-2zM52,70h2v2h-2zM54,70h2v2h-2zM56,70h2v2h-2zM58,70h2v2h-2zM60,70h2v2h-2zM62,70h2v2h-2zM64,70h2v2h-2zM72,70h2v2h-2zM8,72h2v2h-2zM10,72h2v2h-2zM12,72h2v2h-2zM14,72h2v2h-2zM16,72h2v2h-2zM18,72h2v2h-2zM20,72h2v2h-2zM24,72h2v2h-2zM30,72h2v2h-2zM38,72h2v2h-2zM40,72h2v2h-2zM42,72h2v2h-2zM44,72h2v2h-2zM50,72h2v2h-2zM54,72h2v2h-2zM58,72h2v2h-2zM60,72h2v2h-2zM64,72h2v2h-2zM68,72h2v2h-2z" stroke="none" fill="black"></path></svg>