<svg version="1.1" xmlns="http://www.w3.org/2000/svg" width="82px" height="82px" viewBox="0 0 82 82" preserveAspectRatio="xMinYMin meet"><path d="M8,8 h2 v2 h-2z M10,8 h2 v2 h-2z M12,8 h2 v2 h-2z M14,8 h2 v2 h-2z M16,8 h2 v2 h-2z M18,8 h2 v2 h-2z M20,8 h2 v2 h-2z M24,8 h2 v2 h-2z M26,8 h2 v2 h-2z M28,8 h2 v2 h-2z M30,8 h2 v2 h-2z M34,8 h2 v2 h-2z M40,8 h2 v2 h-2z M42,8 h2 v2 h-2z M46,8 h2 v2 h-2z M48,8 h2 v2 h-2z M54,8 h2 v2 h-2z M60,8 h2 v2 h-2z M62,8 h2 v2 h-2z M64,8 h2 v2 h-2z M66,8 h2 v2 h-2z M68,8 h2 v2 h-2z M70,8 h2 v2 h-2z M72,8 h2 v2 h-2z M8,10 h2 v2 h-2z M20,10 h2 v2 h-2z M24,10 h2 v2 h-2z M26,10 h2 v2 h-2z M28,10 h2 v2 h-2z M34,10 h2 v2 h-2z M40,10 h2 v2 h-2z M44,10 h2 v2 h-2z M48,10 h2 v2 h-2z M50,10 h2 v2 h-2z M52,10 h2 v2 h-2z M54,10 h2 v2 h-2z M56,10 h2 v2 h-2z M60,10 h2 v2 h-2z M72,10 h2 v2 h-2z M8,12 h2 v2 h-2z M12,12 h2 v2 h-2z M14,12 h2 v2 h-2z M16,12 h2 v2 h-2z M20,12 h2 v2 h-2z M26,12 h2 v2 h-2z M28,12 h2 v2 h-2z M30,12 h2 v2 h-2z M40,12 h2 v2 h-2z M42,12 h2 v2 h-2z M46,12 h2 v2 h-2z M50,12 h2 v2 h-2z M52,12 h2 v2 h-2z M56,12 h2 v2 h-2z M60,12 h2 v2 h-2z M64,12 h2 v2 h-2z M66,12 h2 v2 h-2z M68,12 h2 v2 h-2z M72,12 h2 v2 h-2z M8,14 h2 v2 h-2z M12,14 h2 v2 h-2z M14,14 h2 v2 h-2z M16,14 h2 v2 h-2z M20,14 h2 v2 h-2z M24,14 h2 v2 h-2z M30,14 h2 v2 h-2z M32,14 h2 v2 h-2z M36,14 h2 v2 h-2z M40,14 h2 v2 h-2z M46,14 h2 v2 h-2z M48,14 h2 v2 h-2z M50,14 h2 v2 h-2z M52,14 h2 v2 h-2z M56,14 h2 v2 h-2z M60,14 h2 v2 h-2z M64,14 h2 v2 h-2z M66,14 h2 v2 h-2z M68,14 h2 v2 h-2z M72,14 h2 v2 h-2z M8,16 h2 v2 h-2z M12,16 h2 v2 h-2z M14,16 h2 v2 h-2z M16,16 h2 v2 h-2z M20,16 h2 v2 h-2z M28,16 h2 v2 h-2z M30,16 h2 v2 h-2z M32,16 h2 v2 h-2z M34,16 h2 v2 h-2z M36,16 h2 v2 h-2z M42,16 h2 v2 h-2z M48,16 h2 v2 h-2z M54,16 h2 v2 h-2z M60,16 h2 v2 h-2z M64,16 h2 v2 h-2z M66,16 h2 v2 h-2z M68,16 h2 v2 h-2z M72,16 h2 v2 h-2z M8,18 h2 v2 h-2z M20,18 h2 v2 h-2z M28,18 h2 v2 h-2z M34,18 h2 v2 h-2z M42,18 h2 v2 h-2z M44,18 h2 v2 h-2z M46,18 h2 v2 h-2z M48,18 h2 v2 h-2z M50,18 h2 v2 h-2z M52,18 h2 v2 h-2z M56,18 h2 v2 h-2z M60,18 h2 v2 h-2z M72,18 h2 v2 h-2z M8,20 h2 v2 h-2z M10,20 h2 v2 h-2z M12,20 h2 v2 h-2z M14,20 h2 v2 h-2z M16,20 h2 v2 h-2z M18,20 h2 v2 h-2z M20,20 h2 v2 h-2z M24,20 h2 v2 h-2z M28,20 h2 v2 h-2z M32,20 h2 v2 h-2z M36,20 h2 v2 h-2z M40,20 h2 v2 h-2z M44,20 h2 v2 h-2z M48,20 h2 v2 h-2z M52,20 h2 v2 h-2z M56,20 h2 v2 h-2z M60,20 h2 v2 h-2z M62,20 h2 v2 h-2z M64,20 h2 v2 h-2z M66,20 h2 v2 h-2z M68,20 h2 v2 h-2z M70,20 h2 v2 h-2z M72,20 h2 v2 h-2z M24,22 h2 v2 h-2z M30,22 h2 v2 h-2z M36,22 h2 v2 h-2z M42,22 h2 v2 h-2z M44,22 h2 v2 h-2z M48,22 h2 v2 h-2z M56,22 h2 v2 h-2z M8,24 h2 v2 h-2z M12,24 h2 v2 h-2z M14,24 h2 v2 h-2z M18,24 h2 v2 h-2z M20,24 h2 v2 h-2z M22,24 h2 v2 h-2z M26,24 h2 v2 h-2z M40,24 h2 v2 h-2z M42,24 h2 v2 h-2z M44,24 h2 v2 h-2z M46,24 h2 v2 h-2z M50,24 h2 v2 h-2z M52,24 h2 v2 h-2z M56,24 h2 v2 h-2z M60,24 h2 v2 h-2z M66,24 h2 v2 h-2z M70,24 h2 v2 h-2z M72,24 h2 v2 h-2z M8,26 h2 v2 h-2z M10,26 h2 v2 h-2z M26,26 h2 v2 h-2z M28,26 h2 v2 h-2z M30,26 h2 v2 h-2z M32,26 h2 v2 h-2z M40,26 h2 v2 h-2z M44,26 h2 v2 h-2z M46,26 h2 v2 h-2z M48,26 h2 v2 h-2z M50,26 h2 v2 h-2z M54,26 h2 v2 h-2z M60,26 h2 v2 h-2z M62,26 h2 v2 h-2z M66,26 h2 v2 h-2z M68,26 h2 v2 h-2z M72,26 h2 v2 h-2z M10,28 h2 v2 h-2z M12,28 h2 v2 h-2z M14,28 h2 v2 h-2z M16,28 h2 v2 h-2z M18,28 h2 v2 h-2z M20,28 h2 v2 h-2z M24,28 h2 v2 h-2z M26,28 h2 v2 h-2z M32,28 h2 v2 h-2z M36,28 h2 v2 h-2z M42,28 h2 v2 h-2z M54,28 h2 v2 h-2z M58,28 h2 v2 h-2z M60,28 h2 v2 h-2z M62,28 h2 v2 h-2z M64,28 h2 v2 h-2z M66,28 h2 v2 h-2z M70,28 h2 v2 h-2z M72,28 h2 v2 h-2z M8,30 h2 v2 h-2z M10,30 h2 v2 h-2z M14,30 h2 v2 h-2z M16,30 h2 v2 h-2z M18,30 h2 v2 h-2z M22,30 h2 v2 h-2z M24,30 h2 v2 h-2z M26,30 h2 v2 h-2z M32,30 h2 v2 h-2z M34,30 h2 v2 h-2z M36,30 h2 v2 h-2z M40,30 h2 v2 h-2z M44,30 h2 v2 h-2z M46,30 h2 v2 h-2z M58,30 h2 v2 h-2z M60,30 h2 v2 h-2z M62,30 h2 v2 h-2z M66,30 h2 v2 h-2z M14,32 h2 v2 h-2z M16,32 h2 v2 h-2z M20,32 h2 v2 h-2z M24,32 h2 v2 h-2z M26,32 h2 v2 h-2z M30,32 h2 v2 h-2z M32,32 h2 v2 h-2z M44,32 h2 v2 h-2z M50,32 h2 v2 h-2z M54,32 h2 v2 h-2z M58,32 h2 v2 h-2z M66,32 h2 v2 h-2z M72,32 h2 v2 h-2z M12,34 h2 v2 h-2z M14,34 h2 v2 h-2z M16,34 h2 v2 h-2z M18,34 h2 v2 h-2z M24,34 h2 v2 h-2z M30,34 h2 v2 h-2z M40,34 h2 v2 h-2z M42,34 h2 v2 h-2z M44,34 h2 v2 h-2z M50,34 h2 v2 h-2z M52,34 h2 v2 h-2z M56,34 h2 v2 h-2z M60,34 h2 v2 h-2z M62,34 h2 v2 h-2z M68,34 h2 v2 h-2z M70,34 h2 v2 h-2z M8,36 h2 v2 h-2z M14,36 h2 v2 h-2z M18,36 h2 v2 h-2z M20,36 h2 v2 h-2z M24,36 h2 v2 h-2z M30,36 h2 v2 h-2z M32,36 h2 v2 h-2z M34,36 h2 v2 h-2z M38,36 h2 v2 h-2z M40,36 h2 v2 h-2z M50,36 h2 v2 h-2z M56,36 h2 v2 h-2z M60,36 h2 v2 h-2z M62,36 h2 v2 h-2z M66,36 h2 v2 h-2z M8,38 h2 v2 h-2z M14,38 h2 v2 h-2z M24,38 h2 v2 h-2z M34,38 h2 v2 h-2z M36,38 h2 v2 h-2z M40,38 h2 v2 h-2z M46,38 h2 v2 h-2z M48,38 h2 v2 h-2z M50,38 h2 v2 h-2z M58,38 h2 v2 h-2z M60,38 h2 v2 h-2z M62,38 h2 v2 h-2z M66,38 h2 v2 h-2z M68,38 h2 v2 h-2z M8,40 h2 v2 h-2z M10,40 h2 v2 h-2z M14,40 h2 v2 h-2z M20,40 h2 v2 h-2z M28,40 h2 v2 h-2z M30,40 h2 v2 h-2z M32,40 h2 v2 h-2z M38,40 h2 v2 h-2z M44,40 h2 v2 h-2z M46,40 h2 v2 h-2z M48,40 h2 v2 h-2z M50,40 h2 v2 h-2z M52,40 h2 v2 h-2z M54,40 h2 v2 h-2z M58,40 h2 v2 h-2z M60,40 h2 v2 h-2z M64,40 h2 v2 h-2z M68,40 h2 v2 h-2z M8,42 h2 v2 h-2z M12,42 h2 v2 h-2z M14,42 h2 v2 h-2z M16,42 h2 v2 h-2z M18,42 h2 v2 h-2z M22,42 h2 v2 h-2z M24,42 h2 v2 h-2z M26,42 h2 v2 h-2z M34,42 h2 v2 h-2z M38,42 h2 v2 h-2z M42,42 h2 v2 h-2z M44,42 h2 v2 h-2z M48,42 h2 v2 h-2z M50,42 h2 v2 h-2z M52,42 h2 v2 h-2z M54,42 h2 v2 h-2z M56,42 h2 v2 h-2z M58,42 h2 v2 h-2z M60,42 h2 v2 h-2z M64,42 h2 v2 h-2z M66,42 h2 v2 h-2z M70,42 h2 v2 h-2z M72,42 h2 v2 h-2z M8,44 h2 v2 h-2z M10,44 h2 v2 h-2z M16,44 h2 v2 h-2z M20,44 h2 v2 h-2z M22,44 h2 v2 h-2z M28,44 h2 v2 h-2z M30,44 h2 v2 h-2z M38,44 h2 v2 h-2z M40,44 h2 v2 h-2z M42,44 h2 v2 h-2z M48,44 h2 v2 h-2z M52,44 h2 v2 h-2z M56,44 h2 v2 h-2z M58,44 h2 v2 h-2z M62,44 h2 v2 h-2z M64,44 h2 v2 h-2z M68,44 h2 v2 h-2z M70,44 h2 v2 h-2z M10,46 h2 v2 h-2z M14,46 h2 v2 h-2z M24,46 h2 v2 h-2z M26,46 h2 v2 h-2z M32,46 h2 v2 h-2z M38,46 h2 v2 h-2z M46,46 h2 v2 h-2z M50,46 h2 v2 h-2z M54,46 h2 v2 h-2z M56,46 h2 v2 h-2z M58,46 h2 v2 h-2z M64,46 h2 v2 h-2z M70,46 h2 v2 h-2z M10,48 h2 v2 h-2z M12,48 h2 v2 h-2z M20,48 h2 v2 h-2z M24,48 h2 v2 h-2z M26,48 h2 v2 h-2z M28,48 h2 v2 h-2z M30,48 h2 v2 h-2z M44,48 h2 v2 h-2z M48,48 h2 v2 h-2z M62,48 h2 v2 h-2z M64,48 h2 v2 h-2z M66,48 h2 v2 h-2z M68,48 h2 v2 h-2z M70,48 h2 v2 h-2z M8,50 h2 v2 h-2z M10,50 h2 v2 h-2z M12,50 h2 v2 h-2z M16,50 h2 v2 h-2z M18,50 h2 v2 h-2z M22,50 h2 v2 h-2z M24,50 h2 v2 h-2z M30,50 h2 v2 h-2z M38,50 h2 v2 h-2z M42,50 h2 v2 h-2z M44,50 h2 v2 h-2z M50,50 h2 v2 h-2z M54,50 h2 v2 h-2z M58,50 h2 v2 h-2z M68,50 h2 v2 h-2z M72,50 h2 v2 h-2z M18,52 h2 v2 h-2z M20,52 h2 v2 h-2z M22,52 h2 v2 h-2z M24,52 h2 v2 h-2z M32,52 h2 v2 h-2z M34,52 h2 v2 h-2z M40,52 h2 v2 h-2z M42,52 h2 v2 h-2z M50,52 h2 v2 h-2z M54,52 h2 v2 h-2z M56,52 h2 v2 h-2z M58,52 h2 v2 h-2z M60,52 h2 v2 h-2z M62,52 h2 v2 h-2z M66,52 h2 v2 h-2z M70,52 h2 v2 h-2z M72,52 h2 v2 h-2z M10,54 h2 v2 h-2z M16,54 h2 v2 h-2z M22,54 h2 v2 h-2z M26,54 h2 v2 h-2z M28,54 h2 v2 h-2z M34,54 h2 v2 h-2z M36,54 h2 v2 h-2z M40,54 h2 v2 h-2z M44,54 h2 v2 h-2z M46,54 h2 v2 h-2z M60,54 h2 v2 h-2z M62,54 h2 v2 h-2z M64,54 h2 v2 h-2z M66,54 h2 v2 h-2z M70,54 h2 v2 h-2z M8,56 h2 v2 h-2z M14,56 h2 v2 h-2z M16,56 h2 v2 h-2z M20,56 h2 v2 h-2z M22,56 h2 v2 h-2z M24,56 h2 v2 h-2z M26,56 h2 v2 h-2z M28,56 h2 v2 h-2z M34,56 h2 v2 h-2z M36,56 h2 v2 h-2z M38,56 h2 v2 h-2z M42,56 h2 v2 h-2z M52,56 h2 v2 h-2z M54,56 h2 v2 h-2z M56,56 h2 v2 h-2z M58,56 h2 v2 h-2z M60,56 h2 v2 h-2z M62,56 h2 v2 h-2z M64,56 h2 v2 h-2z M70,56 h2 v2 h-2z M72,56 h2 v2 h-2z M24,58 h2 v2 h-2z M28,58 h2 v2 h-2z M30,58 h2 v2 h-2z M32,58 h2 v2 h-2z M34,58 h2 v2 h-2z M38,58 h2 v2 h-2z M40,58 h2 v2 h-2z M42,58 h2 v2 h-2z M46,58 h2 v2 h-2z M48,58 h2 v2 h-2z M56,58 h2 v2 h-2z M64,58 h2 v2 h-2z M66,58 h2 v2 h-2z M70,58 h2 v2 h-2z M72,58 h2 v2 h-2z M8,60 h2 v2 h-2z M10,60 h2 v2 h-2z M12,60 h2 v2 h-2z M14,60 h2 v2 h-2z M16,60 h2 v2 h-2z M18,60 h2 v2 h-2z M20,60 h2 v2 h-2z M24,60 h2 v2 h-2z M26,60 h2 v2 h-2z M30,60 h2 v2 h-2z M32,60 h2 v2 h-2z M34,60 h2 v2 h-2z M36,60 h2 v2 h-2z M46,60 h2 v2 h-2z M48,60 h2 v2 h-2z M52,60 h2 v2 h-2z M54,60 h2 v2 h-2z M56,60 h2 v2 h-2z M60,60 h2 v2 h-2z M64,60 h2 v2 h-2z M8,62 h2 v2 h-2z M20,62 h2 v2 h-2z M24,62 h2 v2 h-2z M36,62 h2 v2 h-2z M48,62 h2 v2 h-2z M50,62 h2 v2 h-2z M52,62 h2 v2 h-2z M54,62 h2 v2 h-2z M56,62 h2 v2 h-2z M64,62 h2 v2 h-2z M66,62 h2 v2 h-2z M68,62 h2 v2 h-2z M70,62 h2 v2 h-2z M72,62 h2 v2 h-2z M8,64 h2 v2 h-2z M12,64 h2 v2 h-2z M14,64 h2 v2 h-2z M16,64 h2 v2 h-2z M20,64 h2 v2 h-2z M26,64 h2 v2 h-2z M28,64 h2 v2 h-2z M30,64 h2 v2 h-2z M32,64 h2 v2 h-2z M36,64 h2 v2 h-2z M38,64 h2 v2 h-2z M42,64 h2 v2 h-2z M46,64 h2 v2 h-2z M48,64 h2 v2 h-2z M54,64 h2 v2 h-2z M56,64 h2 v2 h-2z M58,64 h2 v2 h-2z M60,64 h2 v2 h-2z M62,64 h2 v2 h-2z M64,64 h2 v2 h-2z M68,64 h2 v2 h-2z M70,64 h2 v2 h-2z M8,66 h2 v2 h-2z M12,66 h2 v2 h-2z M14,66 h2 v2 h-2z M16,66 h2 v2 h-2z M20,66 h2 v2 h-2z M24,66 h2 v2 h-2z M26,66 h2 v2 h-2z M28,66 h2 v2 h-2z M34,66 h2 v2 h-2z M36,66 h2 v2 h-2z M44,66 h2 v2 h-2z M46,66 h2 v2 h-2z M48,66 h2 v2 h-2z M50,66 h2 v2 h-2z M54,66 h2 v2 h-2z M62,66 h2 v2 h-2z M66,66 h2 v2 h-2z M68,66 h2 v2 h-2z M70,66 h2 v2 h-2z M72,66 h2 v2 h-2z M8,68 h2 v2 h-2z M12,68 h2 v2 h-2z M14,68 h2 v2 h-2z M16,68 h2 v2 h-2z M20,68 h2 v2 h-2z M24,68 h2 v2 h-2z M26,68 h2 v2 h-2z M30,68 h2 v2 h-2z M34,68 h2 v2 h-2z M44,68 h2 v2 h-2z M46,68 h2 v2 h-2z M52,68 h2 v2 h-2z M60,68 h2 v2 h-2z M62,68 h2 v2 h-2z M68,68 h2 v2 h-2z M8,70 h2 v2 h-2z M20,70 h2 v2 h-2z M28,70 h2 v2 h-2z M30,70 h2 v2 h-2z M36,70 h2 v2 h-2z M38,70 h2 v2 h-2z M40,70 h2 v2 h-2z M42,70 h2 v2 h-2z M44,70 h2 v2 h-2z M46,70 h2 v2 h-2z M52,70 h2 v2 h-2z M54,70 h2 v2 h-2z M56,70 h2 v2 h-2z M58,70 h2 v2 h-2z M60,70 h2 v2 h-2z M62,70 h2 v2 h-2z M64,70 h2 v2 h-2z M72,70 h2 v2 h-2z M8,72 h2 v2 h-2z M10,72 h2 v2 h-2z M12,72 h2 v2 h-2z M14,72 h2 v2 h-2z M16,72 h2 v2 h-2z M18,72 h2 v2 h-2z M20,72 h2 v2 h-2z M24,72 h2 v2 h-2z M30,72 h2 v2 h-2z M38,72 h2 v2 h-2z M40,72 h2 v2 h-2z M42,72 h2 v2 h-2z M44,72 h2 v2 h-2z M50,72 h2 v2 h-2z M54,72 h2 v2 h-2z M58,72 h2 v2 h-2z M60,72 h2 v2 h-2z M64,72 h2 v2 h-2z M68,72 h2 v2 h-2z " stroke="none" fill="black"></path></svg>