<svg version="1.1" xmlns="http://www.w3.org/2000/svg" width="82px" height="82px" viewBox="0 0 82 82" preserveAspectRatio="xMinYMin meet"><path d="M 8 8 L 10 8 L 10 10 L 8 10 Z M 10 8 L 12 8 L 12 10 L 10 10 Z M 12 8 L 14 8 L 14 10 L 12 10 Z M 14 8 L 16 8 L 16 10 L 14 10 Z M 16 8 L 18 8 L 18 10 L 16 10 Z M 18 8 L 20 8 L 20 10 L 18 10 Z M 20 8 L 22 8 L 22 10 L 20 10 Z M 24 8 L 26 8 L 26 10 L 24 10 Z M 26 8 L 28 8 L 28 10 L 26 10 Z M 28 8 L 30 8 L 30 10 L 28 10 Z M 30 8 L 32 8 L 32 10 L 30 10 Z M 34 8 L 36 8 L 36 10 L 34 10 Z M 40 8 L 42 8 L 42 10 L 40 10 Z M 42 8 L 44 8 L 44 10 L 42 10 Z M 46 8 L 48 8 L 48 10 L 46 10 Z M 48 8 L 50 8 L 50 10 L 48 10 Z M 54 8 L 56 8 L 56 10 L 54 10 Z M 60 8 L 62 8 L 62 10 L 60 10 Z M 62 8 L 64 8 L 64 10 L 62 10 Z M 64 8 L 66 8 L 66 10 L 64 10 Z M 66 8 L 68 8 L 68 10 L 66 10 Z M 68 8 L 70 8 L 70 10 L 68 10 Z M 70 8 L 72 8 L 72 10 L 70 10 Z M 72 8 L 74 8 L 74 10 L 72 10 Z M 8 10 L 10 10 L 10 12 L 8 12 Z M 20 10 L 22 10 L 22 12 L 20 12 Z M 24 10 L 26 10 L 26 12 L 24 12 Z M 26 10 L 28 10 L 28 12 L 26 12 Z M 28 10 L 30 10 L 30 12 L 28 12 Z M 34 10 L 36 10 L 36 12 L 34 12 Z M 40 10 L 42 10 L 42 12 L 40 12 Z M 44 10 L 46 10 L 46 12 L 44 12 Z M 48 10 L 50 10 L 50 12 L 48 12 Z M 50 10 L 52 10 L 52 12 L 50 12 Z M 52 10 L 54 10 L 54 12 L 52 12 Z M 54 10 L 56 10 L 56 12 L 54 12 Z M 56 10 L 58 10 L 58 12 L 56 12 Z M 60 10 L 62 10 L 62 12 L 60 12 Z M 72 10 L 74 10 L 74 12 L 72 12 Z M 8 12 L 10 12 L 10 14 L 8 14 Z M 12 12 L 14 12 L 14 14 L 12 14 Z M 14 12 L 16 12 L 16 14 L 14 14 Z M 16 12 L 18 12 L 18 14 L 16 14 Z M 20 12 L 22 12 L 22 14 L 20 14 Z M 26 12 L 28 12 L 28 14 L 26 14 Z M 28 12 L 30 12 L 30 14 L 28 14 Z M 30 12 L 32 12 L 32 14 L 30 14 Z M 40 12 L 42 12 L 42 14 L 40 14 Z M 42 12 L 44 12 L 44 14 L 42 14 Z M 46 12 L 48 12 L 48 14 L 46 14 Z M 50 12 L 52 12 L 52 14 L 50 14 Z M 52 12 L 54 12 L 54 14 L 52 14 Z M 56 12 L 58 12 L 58 14 L 56 14 Z M 60 12 L 62 12 L 62 14 L 60 14 Z M 64 12 L 66 12 L 66 14 L 64 14 Z M 66 12 L 68 12 L 68 14 L 66 14 Z M 68 12 L 70 12 L 70 14 L 68 14 Z M 72 12 L 74 12 L 74 14 L 72 14 Z M 8 14 L 10 14 L 10 16 L 8 16 Z M 12 14 L 14 14 L 14 16 L 12 16 Z M 14 14 L 16 14 L 16 16 L 14 16 Z M 16 14 L 18 14 L 18 16 L 16 16 Z M 20 14 L 22 14 L 22 16 L 20 16 Z M 24 14 L 26 14 L 26 16 L 24 16 Z M 30 14 L 32 14 L 32 16 L 30 16 Z M 32 14 L 34 14 L 34 16 L 32 16 Z M 36 14 L 38 14 L 38 16 L 36 16 Z M 40 14 L 42 14 L 42 16 L 40 16 Z M 46 14 L 48 14 L 48 16 L 46 16 Z M 48 14 L 50 14 L 50 16 L 48 16 Z M 50 14 L 52 14 L 52 16 L 50 16 Z M 52 14 L 54 14 L 54 16 L 52 16 Z M 56 14 L 58 14 L 58 16 L 56 16 Z M 60 14 L 62 14 L 62 16 L 60 16 Z M 64 14 L 66 14 L 66 16 L 64 16 Z M 66 14 L 68 14 L 68 16 L 66 16 Z M 68 14 L 70 14 L 70 16 L 68 16 Z M 72 14 L 74 14 L 74 16 L 72 16 Z M 8 16 L 10 16 L 10 18 L 8 18 Z M 12 16 L 14 16 L 14 18 L 12 18 Z M 14 16 L 16 16 L 16 18 L 14 18 Z M 16 16 L 18 16 L 18 18 L 16 18 Z M 20 16 L 22 16 L 22 18 L 20 18 Z M 28 16 L 30 16 L 30 18 L 28 18 Z M 30 16 L 32 16 L 32 18 L 30 18 Z M 32 16 L 34 16 L 34 18 L 32 18 Z M 34 16 L 36 16 L 36 18 L 34 18 Z M 36 16 L 38 16 L 38 18 L 36 18 Z M 42 16 L 44 16 L 44 18 L 42 18 Z M 48 16 L 50 16 L 50 18 L 48 18 Z M 54 16 L 56 16 L 56 18 L 54 18 Z M 60 16 L 62 16 L 62 18 L 60 18 Z M 64 16 L 66 16 L 66 18 L 64 18 Z M 66 16 L 68 16 L 68 18 L 66 18 Z M 68 16 L 70 16 L 70 18 L 68 18 Z M 72 16 L 74 16 L 74 18 L 72 18 Z M 8 18 L 10 18 L 10 20 L 8 20 Z M 20 18 L 22 18 L 22 20 L 20 20 Z M 28 18 L 30 18 L 30 20 L 28 20 Z M 34 18 L 36 18 L 36 20 L 34 20 Z M 42 18 L 44 18 L 44 20 L 42 20 Z M 44 18 L 46 18 L 46 20 L 44 20 Z M 46 18 L 48 18 L 48 20 L 46 20 Z M 48 18 L 50 18 L 50 20 L 48 20 Z M 50 18 L 52 18 L 52 20 L 50 20 Z M 52 18 L 54 18 L 54 20 L 52 20 Z M 56 18 L 58 18 L 58 20 L 56 20 Z M 60 18 L 62 18 L 62 20 L 60 20 Z M 72 18 L 74 18 L 74 20 L 72 20 Z M 8 20 L 10 20 L 10 22 L 8 22 Z M 10 20 L 12 20 L 12 22 L 10 22 Z M 12 20 L 14 20 L 14 22 L 12 22 Z M 14 20 L 16 20 L 16 22 L 14 22 Z M 16 20 L 18 20 L 18 22 L 16 22 Z M 18 20 L 20 20 L 20 22 L 18 22 Z M 20 20 L 22 20 L 22 22 L 20 22 Z M 24 20 L 26 20 L 26 22 L 24 22 Z M 28 20 L 30 20 L 30 22 L 28 22 Z M 32 20 L 34 20 L 34 22 L 32 22 Z M 36 20 L 38 20 L 38 22 L 36 22 Z M 40 20 L 42 20 L 42 22 L 40 22 Z M 44 20 L 46 20 L 46 22 L 44 22 Z M 48 20 L 50 20 L 50 22 L 48 22 Z M 52 20 L 54 20 L 54 22 L 52 22 Z M 56 20 L 58 20 L 58 22 L 56 22 Z M 60 20 L 62 20 L 62 22 L 60 22 Z M 62 20 L 64 20 L 64 22 L 62 22 Z M 64 20 L 66 20 L 66 22 L 64 22 Z M 66 20 L 68 20 L 68 22 L 66 22 Z M 68 20 L 70 20 L 70 22 L 68 22 Z M 70 20 L 72 20 L 72 22 L 70 22 Z M 72 20 L 74 20 L 74 22 L 72 22 Z M 24 22 L 26 22 L 26 24 L 24 24 Z M 30 22 L 32 22 L 32 24 L 30 24 Z M 36 22 L 38 22 L 38 24 L 36 24 Z M 42 22 L 44 22 L 44 24 L 42 24 Z M 44 22 L 46 22 L 46 24 L 44 24 Z M 48 22 L 50 22 L 50 24 L 48 24 Z M 56 22 L 58 22 L 58 24 L 56 24 Z M 8 24 L 10 24 L 10 26 L 8 26 Z M 12 24 L 14 24 L 14 26 L 12 26 Z M 14 24 L 16 24 L 16 26 L 14 26 Z M 18 24 L 20 24 L 20 26 L 18 26 Z M 20 24 L 22 24 L 22 26 L 20 26 Z M 22 24 L 24 24 L 24 26 L 22 26 Z M 26 24 L 28 24 L 28 26 L 26 26 Z M 40 24 L 42 24 L 42 26 L 40 26 Z M 42 24 L 44 24 L 44 26 L 42 26 Z M 44 24 L 46 24 L 46 26 L 44 26 Z M 46 24 L 48 24 L 48 26 L 46 26 Z M 50 24 L 52 24 L 52 26 L 50 26 Z M 52 24 L 54 24 L 54 26 L 52 26 Z M 56 24 L 58 24 L 58 26 L 56 26 Z M 60 24 L 62 24 L 62 26 L 60 26 Z M 66 24 L 68 24 L 68 26 L 66 26 Z M 70 24 L 72 24 L 72 26 L 70 26 Z M 72 24 L 74 24 L 74 26 L 72 26 Z M 8 26 L 10 26 L 10 28 L 8 28 Z M 10 26 L 12 26 L 12 28 L 10 28 Z M 26 26 L 28 26 L 28 28 L 26 28 Z M 28 26 L 30 26 L 30 28 L 28 28 Z M 30 26 L 32 26 L 32 28 L 30 28 Z M 32 26 L 34 26 L 34 28 L 32 28 Z M 40 26 L 42 26 L 42 28 L 40 28 Z M 44 26 L 46 26 L 46 28 L 44 28 Z M 46 26 L 48 26 L 48 28 L 46 28 Z M 48 26 L 50 26 L 50 28 L 48 28 Z M 50 26 L 52 26 L 52 28 L 50 28 Z M 54 26 L 56 26 L 56 28 L 54 28 Z M 60 26 L 62 26 L 62 28 L 60 28 Z M 62 26 L 64 26 L 64 28 L 62 28 Z M 66 26 L 68 26 L 68 28 L 66 28 Z M 68 26 L 70 26 L 70 28 L 68 28 Z M 72 26 L 74 26 L 74 28 L 72 28 Z M 10 28 L 12 28 L 12 30 L 10 30 Z M 12 28 L 14 28 L 14 30 L 12 30 Z M 14 28 L 16 28 L 16 30 L 14 30 Z M 16 28 L 18 28 L 18 30 L 16 30 Z M 18 28 L 20 28 L 20 30 L 18 30 Z M 20 28 L 22 28 L 22 30 L 20 30 Z M 24 28 L 26 28 L 26 30 L 24 30 Z M 26 28 L 28 28 L 28 30 L 26 30 Z M 32 28 L 34 28 L 34 30 L 32 30 Z M 36 28 L 38 28 L 38 30 L 36 30 Z M 42 28 L 44 28 L 44 30 L 42 30 Z M 54 28 L 56 28 L 56 30 L 54 30 Z M 58 28 L 60 28 L 60 30 L 58 30 Z M 60 28 L 62 28 L 62 30 L 60 30 Z M 62 28 L 64 28 L 64 30 L 62 30 Z M 64 28 L 66 28 L 66 30 L 64 30 Z M 66 28 L 68 28 L 68 30 L 66 30 Z M 70 28 L 72 28 L 72 30 L 70 30 Z M 72 28 L 74 28 L 74 30 L 72 30 Z M 8 30 L 10 30 L 10 32 L 8 32 Z M 10 30 L 12 30 L 12 32 L 10 32 Z M 14 30 L 16 30 L 16 32 L 14 32 Z M 16 30 L 18 30 L 18 32 L 16 32 Z M 18 30 L 20 30 L 20 32 L 18 32 Z M 22 30 L 24 30 L 24 32 L 22 32 Z M 24 30 L 26 30 L 26 32 L 24 32 Z M 26 30 L 28 30 L 28 32 L 26 32 Z M 32 30 L 34 30 L 34 32 L 32 32 Z M 34 30 L 36 30 L 36 32 L 34 32 Z M 36 30 L 38 30 L 38 32 L 36 32 Z M 40 30 L 42 30 L 42 32 L 40 32 Z M 44 30 L 46 30 L 46 32 L 44 32 Z M 46 30 L 48 30 L 48 32 L 46 32 Z M 58 30 L 60 30 L 60 32 L 58 32 Z M 60 30 L 62 30 L 62 32 L 60 32 Z M 62 30 L 64 30 L 64 32 L 62 32 Z M 66 30 L 68 30 L 68 32 L 66 32 Z M 14 32 L 16 32 L 16 34 L 14 34 Z M 16 32 L 18 32 L 18 34 L 16 34 Z M 20 32 L 22 32 L 22 34 L 20 34 Z M 24 32 L 26 32 L 26 34 L 24 34 Z M 26 32 L 28 32 L 28 34 L 26 34 Z M 30 32 L 32 32 L 32 34 L 30 34 Z M 32 32 L 34 32 L 34 34 L 32 34 Z M 44 32 L 46 32 L 46 34 L 44 34 Z M 50 32 L 52 32 L 52 34 L 50 34 Z M 54 32 L 56 32 L 56 34 L 54 34 Z M 58 32 L 60 32 L 60 34 L 58 34 Z M 66 32 L 68 32 L 68 34 L 66 34 Z M 72 32 L 74 32 L 74 34 L 72 34 Z M 12 34 L 14 34 L 14 36 L 12 36 Z M 14 34 L 16 34 L 16 36 L 14 36 Z M 16 34 L 18 34 L 18 36 L 16 36 Z M 18 34 L 20 34 L 20 36 L 18 36 Z M 24 34 L 26 34 L 26 36 L 24 36 Z M 30 34 L 32 34 L 32 36 L 30 36 Z M 40 34 L 42 34 L 42 36 L 40 36 Z M 42 34 L 44 34 L 44 36 L 42 36 Z M 44 34 L 46 34 L 46 36 L 44 36 Z M 50 34 L 52 34 L 52 36 L 50 36 Z M 52 34 L 54 34 L 54 36 L 52 36 Z M 56 34 L 58 34 L 58 36 L 56 36 Z M 60 34 L 62 34 L 62 36 L 60 36 Z M 62 34 L 64 34 L 64 36 L 62 36 Z M 68 34 L 70 34 L 70 36 L 68 36 Z M 70 34 L 72 34 L 72 36 L 70 36 Z M 8 36 L 10 36 L 10 38 L 8 38 Z M 14 36 L 16 36 L 16 38 L 14 38 Z M 18 36 L 20 36 L 20 38 L 18 38 Z M 20 36 L 22 36 L 22 38 L 20 38 Z M 24 36 L 26 36 L 26 38 L 24 38 Z M 30 36 L 32 36 L 32 38 L 30 38 Z M 32 36 L 34 36 L 34 38 L 32 38 Z M 34 36 L 36 36 L 36 38 L 34 38 Z M 38 36 L 40 36 L 40 38 L 38 38 Z M 40 36 L 42 36 L 42 38 L 40 38 Z M 50 36 L 52 36 L 52 38 L 50 38 Z M 56 36 L 58 36 L 58 38 L 56 38 Z M 60 36 L 62 36 L 62 38 L 60 38 Z M 62 36 L 64 36 L 64 38 L 62 38 Z M 66 36 L 68 36 L 68 38 L 66 38 Z M 8 38 L 10 38 L 10 40 L 8 40 Z M 14 38 L 16 38 L 16 40 L 14 40 Z M 24 38 L 26 38 L 26 40 L 24 40 Z M 34 38 L 36 38 L 36 40 L 34 40 Z M 36 38 L 38 38 L 38 40 L 36 40 Z M 40 38 L 42 38 L 42 40 L 40 40 Z M 46 38 L 48 38 L 48 40 L 46 40 Z M 48 38 L 50 38 L 50 40 L 48 40 Z M 50 38 L 52 38 L 52 40 L 50 40 Z M 58 38 L 60 38 L 60 40 L 58 40 Z M 60 38 L 62 38 L 62 40 L 60 40 Z M 62 38 L 64 38 L 64 40 L 62 40 Z M 66 38 L 68 38 L 68 40 L 66 40 Z M 68 38 L 70 38 L 70 40 L 68 40 Z M 8 40 L 10 40 L 10 42 L 8 42 Z M 10 40 L 12 40 L 12 42 L 10 42 Z M 14 40 L 16 40 L 16 42 L 14 42 Z M 20 40 L 22 40 L 22 42 L 20 42 Z M 28 40 L 30 40 L 30 42 L 28 42 Z M 30 40 L 32 40 L 32 42 L 30 42 Z M 32 40 L 34 40 L 34 42 L 32 42 Z M 38 40 L 40 40 L 40 42 L 38 42 Z M 44 40 L 46 40 L 46 42 L 44 42 Z M 46 40 L 48 40 L 48 42 L 46 42 Z M 48 40 L 50 40 L 50 42 L 48 42 Z M 50 40 L 52 40 L 52 42 L 50 42 Z M 52 40 L 54 40 L 54 42 L 52 42 Z M 54 40 L 56 40 L 56 42 L 54 42 Z M 58 40 L 60 40 L 60 42 L 58 42 Z M 60 40 L 62 40 L 62 42 L 60 42 Z M 64 40 L 66 40 L 66 42 L 64 42 Z M 68 40 L 70 40 L 70 42 L 68 42 Z M 8 42 L 10 42 L 10 44 L 8 44 Z M 12 42 L 14 42 L 14 44 L 12 44 Z M 14 42 L 16 42 L 16 44 L 14 44 Z M 16 42 L 18 42 L 18 44 L 16 44 Z M 18 42 L 20 42 L 20 44 L 18 44 Z M 22 42 L 24 42 L 24 44 L 22 44 Z M 24 42 L 26 42 L 26 44 L 24 44 Z M 26 42 L 28 42 L 28 44 L 26 44 Z M 34 42 L 36 42 L 36 44 L 34 44 Z M 38 42 L 40 42 L 40 44 L 38 44 Z M 42 42 L 44 42 L 44 44 L 42 44 Z M 44 42 L 46 42 L 46 44 L 44 44 Z M 48 42 L 50 42 L 50 44 L 48 44 Z M 50 42 L 52 42 L 52 44 L 50 44 Z M 52 42 L 54 42 L 54 44 L 52 44 Z M 54 42 L 56 42 L 56 44 L 54 44 Z M 56 42 L 58 42 L 58 44 L 56 44 Z M 58 42 L 60 42 L 60 44 L 58 44 Z M 60 42 L 62 42 L 62 44 L 60 44 Z M 64 42 L 66 42 L 66 44 L 64 44 Z M 66 42 L 68 42 L 68 44 L 66 44 Z M 70 42 L 72 42 L 72 44 L 70 44 Z M 72 42 L 74 42 L 74 44 L 72 44 Z M 8 44 L 10 44 L 10 46 L 8 46 Z M 10 44 L 12 44 L 12 46 L 10 46 Z M 16 44 L 18 44 L 18 46 L 16 46 Z M 20 44 L 22 44 L 22 46 L 20 46 Z M 22 44 L 24 44 L 24 46 L 22 46 Z M 28 44 L 30 44 L 30 46 L 28 46 Z M 30 44 L 32 44 L 32 46 L 30 46 Z M 38 44 L 40 44 L 40 46 L 38 46 Z M 40 44 L 42 44 L 42 46 L 40 46 Z M 42 44 L 44 44 L 44 46 L 42 46 Z M 48 44 L 50 44 L 50 46 L 48 46 Z M 52 44 L 54 44 L 54 46 L 52 46 Z M 56 44 L 58 44 L 58 46 L 56 46 Z M 58 44 L 60 44 L 60 46 L 58 46 Z M 62 44 L 64 44 L 64 46 L 62 46 Z M 64 44 L 66 44 L 66 46 L 64 46 Z M 68 44 L 70 44 L 70 46 L 68 46 Z M 70 44 L 72 44 L 72 46 L 70 46 Z M 10 46 L 12 46 L 12 48 L 10 48 Z M 14 46 L 16 46 L 16 48 L 14 48 Z M 24 46 L 26 46 L 26 48 L 24 48 Z M 26 46 L 28 46 L 28 48 L 26 48 Z M 32 46 L 34 46 L 34 48 L 32 48 Z M 38 46 L 40 46 L 40 48 L 38 48 Z M 46 46 L 48 46 L 48 48 L 46 48 Z M 50 46 L 52 46 L 52 48 L 50 48 Z M 54 46 L 56 46 L 56 48 L 54 48 Z M 56 46 L 58 46 L 58 48 L 56 48 Z M 58 46 L 60 46 L 60 48 L 58 48 Z M 64 46 L 66 46 L 66 48 L 64 48 Z M 70 46 L 72 46 L 72 48 L 70 48 Z M 10 48 L 12 48 L 12 50 L 10 50 Z M 12 48 L 14 48 L 14 50 L 12 50 Z M 20 48 L 22 48 L 22 50 L 20 50 Z M 24 48 L 26 48 L 26 50 L 24 50 Z M 26 48 L 28 48 L 28 50 L 26 50 Z M 28 48 L 30 48 L 30 50 L 28 50 Z M 30 48 L 32 48 L 32 50 L 30 50 Z M 44 48 L 46 48 L 46 50 L 44 50 Z M 48 48 L 50 48 L 50 50 L 48 50 Z M 62 48 L 64 48 L 64 50 L 62 50 Z M 64 48 L 66 48 L 66 50 L 64 50 Z M 66 48 L 68 48 L 68 50 L 66 50 Z M 68 48 L 70 48 L 70 50 L 68 50 Z M 70 48 L 72 48 L 72 50 L 70 50 Z M 8 50 L 10 50 L 10 52 L 8 52 Z M 10 50 L 12 50 L 12 52 L 10 52 Z M 12 50 L 14 50 L 14 52 L 12 52 Z M 16 50 L 18 50 L 18 52 L 16 52 Z M 18 50 L 20 50 L 20 52 L 18 52 Z M 22 50 L 24 50 L 24 52 L 22 52 Z M 24 50 L 26 50 L 26 52 L 24 52 Z M 30 50 L 32 50 L 32 52 L 30 52 Z M 38 50 L 40 50 L 40 52 L 38 52 Z M 42 50 L 44 50 L 44 52 L 42 52 Z M 44 50 L 46 50 L 46 52 L 44 52 Z M 50 50 L 52 50 L 52 52 L 50 52 Z M 54 50 L 56 50 L 56 52 L 54 52 Z M 58 50 L 60 50 L 60 52 L 58 52 Z M 68 50 L 70 50 L 70 52 L 68 52 Z M 72 50 L 74 50 L 74 52 L 72 52 Z M 18 52 L 20 52 L 20 54 L 18 54 Z M 20 52 L 22 52 L 22 54 L 20 54 Z M 22 52 L 24 52 L 24 54 L 22 54 Z M 24 52 L 26 52 L 26 54 L 24 54 Z M 32 52 L 34 52 L 34 54 L 32 54 Z M 34 52 L 36 52 L 36 54 L 34 54 Z M 40 52 L 42 52 L 42 54 L 40 54 Z M 42 52 L 44 52 L 44 54 L 42 54 Z M 50 52 L 52 52 L 52 54 L 50 54 Z M 54 52 L 56 52 L 56 54 L 54 54 Z M 56 52 L 58 52 L 58 54 L 56 54 Z M 58 52 L 60 52 L 60 54 L 58 54 Z M 60 52 L 62 52 L 62 54 L 60 54 Z M 62 52 L 64 52 L 64 54 L 62 54 Z M 66 52 L 68 52 L 68 54 L 66 54 Z M 70 52 L 72 52 L 72 54 L 70 54 Z M 72 52 L 74 52 L 74 54 L 72 54 Z M 10 54 L 12 54 L 12 56 L 10 56 Z M 16 54 L 18 54 L 18 56 L 16 56 Z M 22 54 L 24 54 L 24 56 L 22 56 Z M 26 54 L 28 54 L 28 56 L 26 56 Z M 28 54 L 30 54 L 30 56 L 28 56 Z M 34 54 L 36 54 L 36 56 L 34 56 Z M 36 54 L 38 54 L 38 56 L 36 56 Z M 40 54 L 42 54 L 42 56 L 40 56 Z M 44 54 L 46 54 L 46 56 L 44 56 Z M 46 54 L 48 54 L 48 56 L 46 56 Z M 60 54 L 62 54 L 62 56 L 60 56 Z M 62 54 L 64 54 L 64 56 L 62 56 Z M 64 54 L 66 54 L 66 56 L 64 56 Z M 66 54 L 68 54 L 68 56 L 66 56 Z M 70 54 L 72 54 L 72 56 L 70 56 Z M 8 56 L 10 56 L 10 58 L 8 58 Z M 14 56 L 16 56 L 16 58 L 14 58 Z M 16 56 L 18 56 L 18 58 L 16 58 Z M 20 56 L 22 56 L 22 58 L 20 58 Z M 22 56 L 24 56 L 24 58 L 22 58 Z M 24 56 L 26 56 L 26 58 L 24 58 Z M 26 56 L 28 56 L 28 58 L 26 58 Z M 28 56 L 30 56 L 30 58 L 28 58 Z M 34 56 L 36 56 L 36 58 L 34 58 Z M 36 56 L 38 56 L 38 58 L 36 58 Z M 38 56 L 40 56 L 40 58 L 38 58 Z M 42 56 L 44 56 L 44 58 L 42 58 Z M 52 56 L 54 56 L 54 58 L 52 58 Z M 54 56 L 56 56 L 56 58 L 54 58 Z M 56 56 L 58 56 L 58 58 L 56 58 Z M 58 56 L 60 56 L 60 58 L 58 58 Z M 60 56 L 62 56 L 62 58 L 60 58 Z M 62 56 L 64 56 L 64 58 L 62 58 Z M 64 56 L 66 56 L 66 58 L 64 58 Z M 70 56 L 72 56 L 72 58 L 70 58 Z M 72 56 L 74 56 L 74 58 L 72 58 Z M 24 58 L 26 58 L 26 60 L 24 60 Z M 28 58 L 30 58 L 30 60 L 28 60 Z M 30 58 L 32 58 L 32 60 L 30 60 Z M 32 58 L 34 58 L 34 60 L 32 60 Z M 34 58 L 36 58 L 36 60 L 34 60 Z M 38 58 L 40 58 L 40 60 L 38 60 Z M 40 58 L 42 58 L 42 60 L 40 60 Z M 42 58 L 44 58 L 44 60 L 42 60 Z M 46 58 L 48 58 L 48 60 L 46 60 Z M 48 58 L 50 58 L 50 60 L 48 60 Z M 56 58 L 58 58 L 58 60 L 56 60 Z M 64 58 L 66 58 L 66 60 L 64 60 Z M 66 58 L 68 58 L 68 60 L 66 60 Z M 70 58 L 72 58 L 72 60 L 70 60 Z M 72 58 L 74 58 L 74 60 L 72 60 Z M 8 60 L 10 60 L 10 62 L 8 62 Z M 10 60 L 12 60 L 12 62 L 10 62 Z M 12 60 L 14 60 L 14 62 L 12 62 Z M 14 60 L 16 60 L 16 62 L 14 62 Z M 16 60 L 18 60 L 18 62 L 16 62 Z M 18 60 L 20 60 L 20 62 L 18 62 Z M 20 60 L 22 60 L 22 62 L 20 62 Z M 24 60 L 26 60 L 26 62 L 24 62 Z M 26 60 L 28 60 L 28 62 L 26 62 Z M 30 60 L 32 60 L 32 62 L 30 62 Z M 32 60 L 34 60 L 34 62 L 32 62 Z M 34 60 L 36 60 L 36 62 L 34 62 Z M 36 60 L 38 60 L 38 62 L 36 62 Z M 46 60 L 48 60 L 48 62 L 46 62 Z M 48 60 L 50 60 L 50 62 L 48 62 Z M 52 60 L 54 60 L 54 62 L 52 62 Z M 54 60 L 56 60 L 56 62 L 54 62 Z M 56 60 L 58 60 L 58 62 L 56 62 Z M 60 60 L 62 60 L 62 62 L 60 62 Z M 64 60 L 66 60 L 66 62 L 64 62 Z M 8 62 L 10 62 L 10 64 L 8 64 Z M 20 62 L 22 62 L 22 64 L 20 64 Z M 24 62 L 26 62 L 26 64 L 24 64 Z M 36 62 L 38 62 L 38 64 L 36 64 Z M 48 62 L 50 62 L 50 64 L 48 64 Z M 50 62 L 52 62 L 52 64 L 50 64 Z M 52 62 L 54 62 L 54 64 L 52 64 Z M 54 62 L 56 62 L 56 64 L 54 64 Z M 56 62 L 58 62 L 58 64 L 56 64 Z M 64 62 L 66 62 L 66 64 L 64 64 Z M 66 62 L 68 62 L 68 64 L 66 64 Z M 68 62 L 70 62 L 70 64 L 68 64 Z M 70 62 L 72 62 L 72 64 L 70 64 Z M 72 62 L 74 62 L 74 64 L 72 64 Z M 8 64 L 10 64 L 10 66 L 8 66 Z M 12 64 L 14 64 L 14 66 L 12 66 Z M 14 64 L 16 64 L 16 66 L 14 66 Z M 16 64 L 18 64 L 18 66 L 16 66 Z M 20 64 L 22 64 L 22 66 L 20 66 Z M 26 64 L 28 64 L 28 66 L 26 66 Z M 28 64 L 30 64 L 30 66 L 28 66 Z M 30 64 L 32 64 L 32 66 L 30 66 Z M 32 64 L 34 64 L 34 66 L 32 66 Z M 36 64 L 38 64 L 38 66 L 36 66 Z M 38 64 L 40 64 L 40 66 L 38 66 Z M 42 64 L 44 64 L 44 66 L 42 66 Z M 46 64 L 48 64 L 48 66 L 46 66 Z M 48 64 L 50 64 L 50 66 L 48 66 Z M 54 64 L 56 64 L 56 66 L 54 66 Z M 56 64 L 58 64 L 58 66 L 56 66 Z M 58 64 L 60 64 L 60 66 L 58 66 Z M 60 64 L 62 64 L 62 66 L 60 66 Z M 62 64 L 64 64 L 64 66 L 62 66 Z M 64 64 L 66 64 L 66 66 L 64 66 Z M 68 64 L 70 64 L 70 66 L 68 66 Z M 70 64 L 72 64 L 72 66 L 70 66 Z M 8 66 L 10 66 L 10 68 L 8 68 Z M 12 66 L 14 66 L 14 68 L 12 68 Z M 14 66 L 16 66 L 16 68 L 14 68 Z M 16 66 L 18 66 L 18 68 L 16 68 Z M 20 66 L 22 66 L 22 68 L 20 68 Z M 24 66 L 26 66 L 26 68 L 24 68 Z M 26 66 L 28 66 L 28 68 L 26 68 Z M 28 66 L 30 66 L 30 68 L 28 68 Z M 34 66 L 36 66 L 36 68 L 34 68 Z M 36 66 L 38 66 L 38 68 L 36 68 Z M 44 66 L 46 66 L 46 68 L 44 68 Z M 46 66 L 48 66 L 48 68 L 46 68 Z M 48 66 L 50 66 L 50 68 L 48 68 Z M 50 66 L 52 66 L 52 68 L 50 68 Z M 54 66 L 56 66 L 56 68 L 54 68 Z M 62 66 L 64 66 L 64 68 L 62 68 Z M 66 66 L 68 66 L 68 68 L 66 68 Z M 68 66 L 70 66 L 70 68 L 68 68 Z M 70 66 L 72 66 L 72 68 L 70 68 Z M 72 66 L 74 66 L 74 68 L 72 68 Z M 8 68 L 10 68 L 10 70 L 8 70 Z M 12 68 L 14 68 L 14 70 L 12 70 Z M 14 68 L 16 68 L 16 70 L 14 70 Z M 16 68 L 18 68 L 18 70 L 16 70 Z M 20 68 L 22 68 L 22 70 L 20 70 Z M 24 68 L 26 68 L 26 70 L 24 70 Z M 26 68 L 28 68 L 28 70 L 26 70 Z M 30 68 L 32 68 L 32 70 L 30 70 Z M 34 68 L 36 68 L 36 70 L 34 70 Z M 44 68 L 46 68 L 46 70 L 44 70 Z M 46 68 L 48 68 L 48 70 L 46 70 Z M 52 68 L 54 68 L 54 70 L 52 70 Z M 60 68 L 62 68 L 62 70 L 60 70 Z M 62 68 L 64 68 L 64 70 L 62 70 Z M 68 68 L 70 68 L 70 70 L 68 70 Z M 8 70 L 10 70 L 10 72 L 8 72 Z M 20 70 L 22 70 L 22 72 L 20 72 Z M 28 70 L 30 70 L 30 72 L 28 72 Z M 30 70 L 32 70 L 32 72 L 30 72 Z M 36 70 L 38 70 L 38 72 L 36 72 Z M 38 70 L 40 70 L 40 72 L 38 72 Z M 40 70 L 42 70 L 42 72 L 40 72 Z M 42 70 L 44 70 L 44 72 L 42 72 Z M 44 70 L 46 70 L 46 72 L 44 72 Z M 46 70 L 48 70 L 48 72 L 46 72 Z M 52 70 L 54 70 L 54 72 L 52 72 Z M 54 70 L 56 70 L 56 72 L 54 72 Z M 56 70 L 58 70 L 58 72 L 56 72 Z M 58 70 L 60 70 L 60 72 L 58 72 Z M 60 70 L 62 70 L 62 72 L 60 72 Z M 62 70 L 64 70 L 64 72 L 62 72 Z M 64 70 L 66 70 L 66 72 L 64 72 Z M 72 70 L 74 70 L 74 72 L 72 72 Z M 8 72 L 10 72 L 10 74 L 8 74 Z M 10 72 L 12 72 L 12 74 L 10 74 Z M 12 72 L 14 72 L 14 74 L 12 74 Z M 14 72 L 16 72 L 16 74 L 14 74 Z M 16 72 L 18 72 L 18 74 L 16 74 Z M 18 72 L 20 72 L 20 74 L 18 74 Z M 20 72 L 22 72 L 22 74 L 20 74 Z M 24 72 L 26 72 L 26 74 L 24 74 Z M 30 72 L 32 72 L 32 74 L 30 74 Z M 38 72 L 40 72 L 40 74 L 38 74 Z M 40 72 L 42 72 L 42 74 L 40 74 Z M 42 72 L 44 72 L 44 74 L 42 74 Z M 44 72 L 46 72 L 46 74 L 44 74 Z M 50 72 L 52 72 L 52 74 L 50 74 Z M 54 72 L 56 72 L 56 74 L 54 74 Z M 58 72 L 60 72 L 60 74 L 58 74 Z M 60 72 L 62 72 L 62 74 L 60 74 Z M 64 72 L 66 72 L 66 74 L 64 74 Z M 68 72 L 70 72 L 70 74 L 68 74 Z " stroke="none" fill="black"></path></svg>